ffmpeg started on 2025-06-19 at 11:59:31
Report written to "D:\Convert\FFMetrics\reports\ssim_report-6.txt"
Log level: 32
Command line:
ffmpeg -hide_banner -nostdin -i "G:\\\xc0\xed\xe8\xec\xe5\\[\xd2\xee\xef-4]\\Fate\\\xc0\xef\xee\xea\xf0\xe8\xf4\\Fate_Apocrypha_[14]_[AniLibria_TV]_[HDTVRip_720p]_HEVC.mkv" -i "G:\\\xc0\xed\xe8\xec\xe5\\[\xd2\xee\xef-4]\\Fate\\\xc0\xef\xee\xea\xf0\xe8\xf4\\Fate_Apocrypha_[14]_[AniLibria_TV]_[HDTVRip_720p].mkv" -lavfi "[0:v]settb=AVTB,setpts=PTS-STARTPTS,format=pix_fmts=yuv420p10,fps=24000/1001,scale=1280:720:flags=bicubic[main];[1:v]settb=AVTB,setpts=PTS-STARTPTS,format=pix_fmts=yuv420p,fps=24000/1001,scale=1280:720:flags=bicubic[ref];[main][ref]ssim=eof_action=endall:stats_file='D\\:/Convert/FFMetrics/logs/ssim_logfile-6.txt'" -f null -
Input #0, matroska,webm, from 'G:\Аниме\[Топ-4]\Fate\Апокриф\Fate_Apocrypha_[14]_[AniLibria_TV]_[HDTVRip_720p]_HEVC.mkv':
  Metadata:
    ENCODER         : Lavf61.7.100
  Duration: 00:24:00.13, start: -0.021000, bitrate: 654 kb/s
  Stream #0:0(jpn): Video: hevc (Main 10), yuv420p10le(tv, bt709, progressive), 1280x720 [SAR 1:1 DAR 16:9], 23.81 fps, 23.81 tbr, 1k tbn (default)
      Metadata:
        ENCODER         : Lavc61.19.100 libx265
        BPS             : 455404
        DURATION        : 00:24:00.012000000
        NUMBER_OF_FRAMES: 34525
        NUMBER_OF_BYTES : 81973437
        _STATISTICS_WRITING_APP: mkvpropedit v66.0.0 ('Josie') 64-bit
        _STATISTICS_WRITING_DATE_UTC: 2025-06-16 16:56:32
        _STATISTICS_TAGS: BPS DURATION NUMBER_OF_FRAMES NUMBER_OF_BYTES
  Stream #0:1(rus): Audio: aac (LC), 48000 Hz, stereo, fltp (default)
      Metadata:
        title           : Ados Amikiri Anzen Hekomi Silv
        ENCODER         : Lavc61.19.100 aac
        BPS             : 194503
        DURATION        : 00:24:00.107000000
        NUMBER_OF_FRAMES: 67506
        NUMBER_OF_BYTES : 35013240
        _STATISTICS_WRITING_APP: mkvpropedit v66.0.0 ('Josie') 64-bit
        _STATISTICS_WRITING_DATE_UTC: 2025-06-16 16:56:32
        _STATISTICS_TAGS: BPS DURATION NUMBER_OF_FRAMES NUMBER_OF_BYTES
  Stream #0:2(rus): Subtitle: ass (ssa) (default) (forced)
      Metadata:
        title           : Надписи
        BPS             : 501
        DURATION        : 00:00:03.000000000
        NUMBER_OF_FRAMES: 2
        NUMBER_OF_BYTES : 188
        _STATISTICS_WRITING_APP: mkvpropedit v66.0.0 ('Josie') 64-bit
        _STATISTICS_WRITING_DATE_UTC: 2025-06-16 16:56:32
        _STATISTICS_TAGS: BPS DURATION NUMBER_OF_FRAMES NUMBER_OF_BYTES
  Stream #0:3(rus): Subtitle: ass (ssa)
      Metadata:
        title           : Полные
        BPS             : 124
        DURATION        : 00:23:37.960000000
        NUMBER_OF_FRAMES: 302
        NUMBER_OF_BYTES : 22120
        _STATISTICS_WRITING_APP: mkvpropedit v66.0.0 ('Josie') 64-bit
        _STATISTICS_WRITING_DATE_UTC: 2025-06-16 16:56:32
        _STATISTICS_TAGS: BPS DURATION NUMBER_OF_FRAMES NUMBER_OF_BYTES
Input #1, matroska,webm, from 'G:\Аниме\[Топ-4]\Fate\Апокриф\Fate_Apocrypha_[14]_[AniLibria_TV]_[HDTVRip_720p].mkv':
  Metadata:
    encoder         : libebml v1.3.0 + libmatroska v1.4.1
    creation_time   : 2017-10-10T21:49:47.000000Z
  Duration: 00:24:00.11, start: 0.000000, bitrate: 2218 kb/s
  Stream #1:0: Video: h264 (Main), yuv420p(tv, bt709, progressive), 1280x720, SAR 1:1 DAR 16:9, 23.81 fps, 23.81 tbr, 1k tbn (default)
      Metadata:
        BPS             : 1808671
        BPS-eng         : 1808671
        DURATION        : 00:24:00.028000000
        DURATION-eng    : 00:24:00.028000000
        NUMBER_OF_FRAMES: 34525
        NUMBER_OF_FRAMES-eng: 34525
        NUMBER_OF_BYTES : 325567171
        NUMBER_OF_BYTES-eng: 325567171
        _STATISTICS_WRITING_APP: mkvmerge v7.3.0 ('Nouages') 64bit built on Oct 22 2014 18:53:34
        _STATISTICS_WRITING_APP-eng: mkvmerge v7.3.0 ('Nouages') 64bit built on Oct 22 2014 18:53:34
        _STATISTICS_WRITING_DATE_UTC: 2017-10-10 21:49:47
        _STATISTICS_WRITING_DATE_UTC-eng: 2017-10-10 21:49:47
        _STATISTICS_TAGS: BPS DURATION NUMBER_OF_FRAMES NUMBER_OF_BYTES
        _STATISTICS_TAGS-eng: BPS DURATION NUMBER_OF_FRAMES NUMBER_OF_BYTES
  Stream #1:1(rus): Audio: aac (LC), 48000 Hz, stereo, fltp (default)
      Metadata:
        title           : Ados Amikiri Anzen Hekomi Silv
        BPS             : 192091
        BPS-eng         : 192091
        DURATION        : 00:24:00.106000000
        DURATION-eng    : 00:24:00.106000000
        NUMBER_OF_FRAMES: 67505
        NUMBER_OF_FRAMES-eng: 67505
        NUMBER_OF_BYTES : 34579044
        NUMBER_OF_BYTES-eng: 34579044
        _STATISTICS_WRITING_APP: mkvmerge v7.3.0 ('Nouages') 64bit built on Oct 22 2014 18:53:34
        _STATISTICS_WRITING_APP-eng: mkvmerge v7.3.0 ('Nouages') 64bit built on Oct 22 2014 18:53:34
        _STATISTICS_WRITING_DATE_UTC: 2017-10-10 21:49:47
        _STATISTICS_WRITING_DATE_UTC-eng: 2017-10-10 21:49:47
        _STATISTICS_TAGS: BPS DURATION NUMBER_OF_FRAMES NUMBER_OF_BYTES
        _STATISTICS_TAGS-eng: BPS DURATION NUMBER_OF_FRAMES NUMBER_OF_BYTES
  Stream #1:2(jpn): Audio: aac (LC), 48000 Hz, stereo, fltp
      Metadata:
        title           : Оригинал
        BPS             : 212834
        BPS-eng         : 212834
        DURATION        : 00:24:00.085000000
        DURATION-eng    : 00:24:00.085000000
        NUMBER_OF_FRAMES: 67504
        NUMBER_OF_FRAMES-eng: 67504
        NUMBER_OF_BYTES : 38312481
        NUMBER_OF_BYTES-eng: 38312481
        _STATISTICS_WRITING_APP: mkvmerge v7.3.0 ('Nouages') 64bit built on Oct 22 2014 18:53:34
        _STATISTICS_WRITING_APP-eng: mkvmerge v7.3.0 ('Nouages') 64bit built on Oct 22 2014 18:53:34
        _STATISTICS_WRITING_DATE_UTC: 2017-10-10 21:49:47
        _STATISTICS_WRITING_DATE_UTC-eng: 2017-10-10 21:49:47
        _STATISTICS_TAGS: BPS DURATION NUMBER_OF_FRAMES NUMBER_OF_BYTES
        _STATISTICS_TAGS-eng: BPS DURATION NUMBER_OF_FRAMES NUMBER_OF_BYTES
  Stream #1:3(rus): Subtitle: ass (ssa) (default) (forced)
      Metadata:
        title           : Надписи
        BPS             : 501
        BPS-eng         : 501
        DURATION        : 00:00:03.000000000
        DURATION-eng    : 00:00:03.000000000
        NUMBER_OF_FRAMES: 2
        NUMBER_OF_FRAMES-eng: 2
        NUMBER_OF_BYTES : 188
        NUMBER_OF_BYTES-eng: 188
        _STATISTICS_WRITING_APP: mkvmerge v7.3.0 ('Nouages') 64bit built on Oct 22 2014 18:53:34
        _STATISTICS_WRITING_APP-eng: mkvmerge v7.3.0 ('Nouages') 64bit built on Oct 22 2014 18:53:34
        _STATISTICS_WRITING_DATE_UTC: 2017-10-10 21:49:47
        _STATISTICS_WRITING_DATE_UTC-eng: 2017-10-10 21:49:47
        _STATISTICS_TAGS: BPS DURATION NUMBER_OF_FRAMES NUMBER_OF_BYTES
        _STATISTICS_TAGS-eng: BPS DURATION NUMBER_OF_FRAMES NUMBER_OF_BYTES
  Stream #1:4(rus): Subtitle: ass (ssa)
      Metadata:
        title           : Полные
        BPS             : 124
        BPS-eng         : 124
        DURATION        : 00:23:37.960000000
        DURATION-eng    : 00:23:37.960000000
        NUMBER_OF_FRAMES: 302
        NUMBER_OF_FRAMES-eng: 302
        NUMBER_OF_BYTES : 22120
        NUMBER_OF_BYTES-eng: 22120
        _STATISTICS_WRITING_APP: mkvmerge v7.3.0 ('Nouages') 64bit built on Oct 22 2014 18:53:34
        _STATISTICS_WRITING_APP-eng: mkvmerge v7.3.0 ('Nouages') 64bit built on Oct 22 2014 18:53:34
        _STATISTICS_WRITING_DATE_UTC: 2017-10-10 21:49:47
        _STATISTICS_WRITING_DATE_UTC-eng: 2017-10-10 21:49:47
        _STATISTICS_TAGS: BPS DURATION NUMBER_OF_FRAMES NUMBER_OF_BYTES
        _STATISTICS_TAGS-eng: BPS DURATION NUMBER_OF_FRAMES NUMBER_OF_BYTES
  Stream #1:5: Attachment: ttf
      Metadata:
        filename        : ALBR.ttf
        mimetype        : application/x-truetype-font
  Stream #1:6: Attachment: ttf
      Metadata:
        filename        : 9511(1).ttf
        mimetype        : application/x-truetype-font
Stream mapping:
  Stream #0:0 (hevc) -> settb:default
  Stream #1:0 (h264) -> settb:default
  ssim:default -> Stream #0:0 (wrapped_avframe)
  Stream #0:1 -> #0:1 (aac (native) -> pcm_s16le (native))
Output #0, null, to 'pipe:':
  Metadata:
    encoder         : Lavf61.7.100
  Stream #0:0: Video: wrapped_avframe, yuv420p10le(tv, bt709, progressive), 1280x720 [SAR 1:1 DAR 16:9], q=2-31, 200 kb/s, 23.98 fps, 23.98 tbn
      Metadata:
        encoder         : Lavc61.19.100 wrapped_avframe
  Stream #0:1(rus): Audio: pcm_s16le, 48000 Hz, stereo, s16, 1536 kb/s (default)
      Metadata:
        title           : Ados Amikiri Anzen Hekomi Silv
        _STATISTICS_TAGS: BPS DURATION NUMBER_OF_FRAMES NUMBER_OF_BYTES
        BPS             : 194503
        DURATION        : 00:24:00.107000000
        NUMBER_OF_FRAMES: 67506
        NUMBER_OF_BYTES : 35013240
        _STATISTICS_WRITING_APP: mkvpropedit v66.0.0 ('Josie') 64-bit
        _STATISTICS_WRITING_DATE_UTC: 2025-06-16 16:56:32
        encoder         : Lavc61.19.100 pcm_s16le
frame=  501 fps=0.0 q=-0.0 size=N/A time=00:00:20.89 bitrate=N/A speed=  40x    frame= 1015 fps=973 q=-0.0 size=N/A time=00:00:42.33 bitrate=N/A speed=40.6x    frame= 1342 fps=855 q=-0.0 size=N/A time=00:00:55.97 bitrate=N/A speed=35.7x    frame= 1772 fps=849 q=-0.0 size=N/A time=00:01:13.90 bitrate=N/A speed=35.4x    frame= 2161 fps=832 q=-0.0 size=N/A time=00:01:30.13 bitrate=N/A speed=34.7x    frame= 2592 fps=832 q=-0.0 size=N/A time=00:01:48.10 bitrate=N/A speed=34.7x    frame= 2966 fps=818 q=-0.0 size=N/A time=00:02:03.70 bitrate=N/A speed=34.1x    frame= 3448 fps=831 q=-0.0 size=N/A time=00:02:23.81 bitrate=N/A speed=34.7x    frame= 3889 fps=834 q=-0.0 size=N/A time=00:02:42.20 bitrate=N/A speed=34.8x    frame= 4439 fps=858 q=-0.0 size=N/A time=00:03:05.14 bitrate=N/A speed=35.8x    frame= 5070 fps=890 q=-0.0 size=N/A time=00:03:31.46 bitrate=N/A speed=37.1x    frame= 5584 fps=900 q=-0.0 size=N/A time=00:03:52.89 bitrate=N/A speed=37.5x    frame= 6149 fps=915 q=-0.0 size=N/A time=00:04:16.46 bitrate=N/A speed=38.2x    frame= 6757 fps=933 q=-0.0 size=N/A time=00:04:41.82 bitrate=N/A speed=38.9x    frame= 7356 fps=949 q=-0.0 size=N/A time=00:05:06.80 bitrate=N/A speed=39.6x    frame= 7925 fps=958 q=-0.0 size=N/A time=00:05:30.53 bitrate=N/A speed=  40x    frame= 8545 fps=973 q=-0.0 size=N/A time=00:05:56.39 bitrate=N/A speed=40.6x    frame= 9196 fps=988 q=-0.0 size=N/A time=00:06:23.54 bitrate=N/A speed=41.2x    frame= 9811 fps=999 q=-0.0 size=N/A time=00:06:49.20 bitrate=N/A speed=41.7x    frame=10374 fps=1004 q=-0.0 size=N/A time=00:07:12.68 bitrate=N/A speed=41.9x    frame=10869 fps=1002 q=-0.0 size=N/A time=00:07:33.32 bitrate=N/A speed=41.8x    frame=11328 fps=997 q=-0.0 size=N/A time=00:07:52.47 bitrate=N/A speed=41.6x    frame=11859 fps=998 q=-0.0 size=N/A time=00:08:14.61 bitrate=N/A speed=41.6x    frame=12355 fps=996 q=-0.0 size=N/A time=00:08:35.30 bitrate=N/A speed=41.5x    frame=12967 fps=1004 q=-0.0 size=N/A time=00:09:00.83 bitrate=N/A speed=41.9x    frame=13573 fps=1011 q=-0.0 size=N/A time=00:09:26.10 bitrate=N/A speed=42.2x    frame=14134 fps=1014 q=-0.0 size=N/A time=00:09:49.50 bitrate=N/A speed=42.3x    frame=14672 fps=1015 q=-0.0 size=N/A time=00:10:11.94 bitrate=N/A speed=42.3x    frame=15216 fps=1016 q=-0.0 size=N/A time=00:10:34.63 bitrate=N/A speed=42.4x    frame=15793 fps=1019 q=-0.0 size=N/A time=00:10:58.69 bitrate=N/A speed=42.5x    frame=16359 fps=1022 q=-0.0 size=N/A time=00:11:22.30 bitrate=N/A speed=42.6x    frame=17004 fps=1029 q=-0.0 size=N/A time=00:11:49.20 bitrate=N/A speed=42.9x    frame=17619 fps=1034 q=-0.0 size=N/A time=00:12:14.85 bitrate=N/A speed=43.1x    frame=17998 fps=1026 q=-0.0 size=N/A time=00:12:30.66 bitrate=N/A speed=42.8x    frame=18512 fps=1024 q=-0.0 size=N/A time=00:12:52.10 bitrate=N/A speed=42.7x    frame=18918 fps=1018 q=-0.0 size=N/A time=00:13:09.03 bitrate=N/A speed=42.5x    frame=19388 fps=1015 q=-0.0 size=N/A time=00:13:28.64 bitrate=N/A speed=42.3x    frame=19914 fps=1015 q=-0.0 size=N/A time=00:13:50.57 bitrate=N/A speed=42.3x    frame=20292 fps=1008 q=-0.0 size=N/A time=00:14:06.34 bitrate=N/A speed=  42x    frame=20781 fps=1006 q=-0.0 size=N/A time=00:14:26.74 bitrate=N/A speed=  42x    frame=21350 fps=1009 q=-0.0 size=N/A time=00:14:50.47 bitrate=N/A speed=42.1x    frame=21752 fps=1004 q=-0.0 size=N/A time=00:15:07.23 bitrate=N/A speed=41.9x    frame=22224 fps=1002 q=-0.0 size=N/A time=00:15:26.92 bitrate=N/A speed=41.8x    frame=22733 fps=1001 q=-0.0 size=N/A time=00:15:48.15 bitrate=N/A speed=41.7x    frame=23295 fps=1003 q=-0.0 size=N/A time=00:16:11.59 bitrate=N/A speed=41.8x    frame=23841 fps=1005 q=-0.0 size=N/A time=00:16:34.36 bitrate=N/A speed=41.9x    frame=24440 fps=1008 q=-0.0 size=N/A time=00:16:59.35 bitrate=N/A speed=  42x    frame=25061 fps=1012 q=-0.0 size=N/A time=00:17:25.25 bitrate=N/A speed=42.2x    frame=25663 fps=1015 q=-0.0 size=N/A time=00:17:50.36 bitrate=N/A speed=42.3x    frame=26235 fps=1017 q=-0.0 size=N/A time=00:18:14.21 bitrate=N/A speed=42.4x    frame=26822 fps=1019 q=-0.0 size=N/A time=00:18:38.70 bitrate=N/A speed=42.5x    frame=27281 fps=1016 q=-0.0 size=N/A time=00:18:57.84 bitrate=N/A speed=42.4x    frame=27826 fps=1017 q=-0.0 size=N/A time=00:19:20.57 bitrate=N/A speed=42.4x    frame=28328 fps=1017 q=-0.0 size=N/A time=00:19:41.51 bitrate=N/A speed=42.4x    frame=28762 fps=1013 q=-0.0 size=N/A time=00:19:59.61 bitrate=N/A speed=42.3x    frame=29321 fps=1015 q=-0.0 size=N/A time=00:20:22.93 bitrate=N/A speed=42.3x    frame=29756 fps=1012 q=-0.0 size=N/A time=00:20:41.07 bitrate=N/A speed=42.2x    frame=30089 fps=1006 q=-0.0 size=N/A time=00:20:54.96 bitrate=N/A speed=41.9x    frame=30542 fps=1004 q=-0.0 size=N/A time=00:21:13.85 bitrate=N/A speed=41.9x    frame=31079 fps=1004 q=-0.0 size=N/A time=00:21:36.25 bitrate=N/A speed=41.9x    frame=31607 fps=1004 q=-0.0 size=N/A time=00:21:58.27 bitrate=N/A speed=41.9x    frame=32217 fps=1007 q=-0.0 size=N/A time=00:22:23.75 bitrate=N/A speed=  42x    frame=32718 fps=1006 q=-0.0 size=N/A time=00:22:44.61 bitrate=N/A speed=  42x    frame=33122 fps=1003 q=-0.0 size=N/A time=00:23:01.46 bitrate=N/A speed=41.8x    frame=33641 fps=1003 q=-0.0 size=N/A time=00:23:23.11 bitrate=N/A speed=41.8x    frame=34197 fps=1004 q=-0.0 size=N/A time=00:23:46.29 bitrate=N/A speed=41.9x    [Parsed_ssim_10 @ 000001b9b072c000] SSIM Y:0.988316 (19.324252) U:0.990488 (20.217423) V:0.991730 (20.824890) All:0.989247 (19.684839)
[out#0/null @ 000001b9a9477c40] video:14835KiB audio:270024KiB subtitle:0KiB other streams:0KiB global headers:0KiB muxing overhead: unknown
frame=34526 fps=1005 q=-0.0 Lsize=N/A time=00:24:00.02 bitrate=N/A speed=41.9x    
